<svg width="36" height="36" viewBox="0 0 36 36" fill="none" xmlns="http://www.w3.org/2000/svg">
<path d="M20.9681 19.8196C23.1154 16.3376 23.5453 12.3686 22.504 8.77216C21.4727 5.21073 18.9987 2.0147 15.3208 0.0188561C16.7826 2.39714 17.0833 5.10379 16.3877 7.56289C15.6855 10.0453 13.9681 12.2755 11.4049 13.6609C8.84174 15.0463 7.12428 17.2765 6.42209 19.7589C5.72527 22.2224 6.02827 24.9343 7.49682 27.3156C8.97666 29.7153 11.3588 31.3232 14.0103 31.9806C16.6417 32.633 19.6332 32.3271 22.1768 30.9522C24.74 29.5668 26.4388 27.324 27.141 24.8416C27.2839 24.3366 27.3822 23.839 27.4396 23.3182C26.9596 24.1018 26.1649 24.7323 25.1594 24.9846C24.1595 25.2354 23.1458 25.0839 22.3143 24.6359C21.4796 24.1863 20.8286 23.438 20.5596 22.4984C20.2902 21.5569 20.4832 20.6005 20.9681 19.8196Z" fill="#FB6C1C"/>
</svg>
