<svg version="1.0" xmlns="http://www.w3.org/2000/svg" width="500" height="500" viewBox="0 0 5000 5000"><path d="M2215 4974c-233-49-462-139-610-240-393-266-683-717-830-1289-35-139-78-366-95-505-18-144-24-573-11-747 61-814 372-1494 846-1851C1847 92 2283-20 2702 35c282 37 478 110 713 263 152 99 344 296 463 475 274 413 421 900 452 1502 33 613-71 1214-286 1664-188 393-415 658-718 836-172 101-298 147-536 195-195 39-402 41-575 4z" fill="#ce6759"/><g fill="#c3857b"><path d="M2300 4990l-25-7 29-8c17-5 42-3 61 4 40 14 206 14 255 0 22-7 50-8 67-4l28 8-25 7c-14 5-101 8-195 8-93 0-181-3-195-8zM2220 4970c0-13 11-13 30 0 12 8 11 10-7 10-13 0-23-4-23-10zM2735 4970c3-5 13-10 21-10s12 5 9 10c-3 6-13 10-21 10s-12-4-9-10zM2930 4935c0-5 23-15 68-29 12-4 22-3 22 2 0 6-12 13-27 16-16 4-36 9-45 12-10 3-18 3-18-1zM3080 4884c30-14 67-33 82-40 14-8 32-14 38-14 13 0 51-23 181-107 44-29 83-53 87-53s13-9 20-20 19-20 27-20 22-12 32-26c9-14 27-30 40-35s23-14 23-21 10-18 22-23c13-6 28-21 35-35s26-37 44-52c17-14 36-37 43-49 6-12 18-25 26-27 8-3-1 15-20 39-151 189-383 367-606 462-100 43-146 56-74 21zM1700 4794c-71-42-121-77-116-82 3-2 20 6 38 19 39 29 66 45 95 58 18 8 41 31 31 31-2 0-23-12-48-26zM1530 4680c-19-16-30-29-24-30 5 0 23 14 39 30 37 38 29 39-15 0zM1460 4625c-13-14-19-25-13-25 12 0 48 38 41 45-2 3-15-6-28-20zM1324 4498l-29-33 33 29c30 28 37 36 29 36-2 0-16-15-33-32zM1250 4415c-7-9-11-18-8-20 3-3 11 1 18 10s11 18 8 20c-3 3-11-1-18-10zM1210 4365c-7-9-11-18-8-20 3-3 11 1 18 10s11 18 8 20c-3 3-11-1-18-10zM3790 4341c0-5 6-14 13-18 8-4 16-16 20-25 3-10 11-18 17-18s2 13-10 30c-24 33-40 46-40 31zM1129 4253c-29-43-45-72-36-64 21 17 100 131 94 137-2 3-28-30-58-73zM3850 4265c0-11 72-116 76-112 3 3-11 30-31 61-32 50-45 65-45 51zM1050 4130c-6-12-9-24-7-27 3-2 11 5 17 17s9 24 7 27c-3 2-11-5-17-17zM2381 4118c-14-5-49-9-78-9-29-1-55-5-58-9-3-5-31-14-63-21-63-13-156-51-166-68-4-6-14-11-22-11-19 0-154-89-161-106-3-8-27-30-54-49-28-20-53-43-56-53-6-16-18-30-80-96-13-13-23-26-23-30s-11-22-24-39c-13-18-30-45-38-62-9-16-34-68-58-115-23-47-48-97-56-112s-13-30-12-35c2-11-24-96-34-107-4-6-8-20-8-32 0-13-5-26-11-29-6-4-8-13-5-21 3-7 0-16-5-20-6-3-9-15-6-25s1-21-3-24c-5-3-9-13-9-23 0-9-3-30-6-47-25-122-29-187-29-475-1-275 3-339 28-460 3-14 8-45 11-70 4-24 9-49 13-55 4-5 7-14 7-20 1-5 7-23 14-40 7-16 15-43 18-60 5-32 16-63 39-107 8-14 14-33 14-40 0-36 152-308 171-308 5 0 8-4 7-9-2-5 5-17 15-28 10-10 56-57 102-105 46-49 87-88 91-88 5 0 19-11 33-24 35-32 157-101 226-126 127-46 233-63 400-62 143 0 194 4 211 15 6 3 32 8 58 12 26 3 58 12 69 20 12 8 29 15 39 15s32 9 50 20 38 20 45 20 38 18 70 41c32 22 68 45 81 50 12 5 22 13 22 19 0 5 6 10 13 10 14 0 147 134 147 149 0 6 9 15 20 21s20 17 20 25 4 15 9 15c21 0 171 259 171 299 0 9 12 39 25 66 14 28 25 57 25 65s7 28 15 44c8 15 13 31 10 35-2 4 3 20 11 36 8 15 12 30 9 33s0 11 5 17c6 7 13 41 16 76 4 35 11 70 16 76 6 7 8 19 5 26-2 7-1 37 4 67 21 125 32 431 18 515-5 28-11 82-14 120-5 75-10 112-19 160-12 59-14 70-24 102-6 17-8 34-5 37s1 11-4 18c-11 13-53 148-53 167 0 13-27 75-76 176-36 75-46 92-81 142-13 17-23 37-23 43s-7 13-15 16c-8 4-15 12-15 20s-9 19-20 26-20 18-20 23c0 6-20 28-45 48-25 21-45 45-45 52 0 8-5 15-11 15s-20 11-31 25-25 25-32 25-24 13-39 28c-15 16-48 39-72 51-25 12-47 26-50 32-4 5-14 9-23 9s-39 12-67 25c-27 14-58 25-67 25s-20 5-23 10c-4 6-12 10-18 8-7-1-37 3-67 10-105 21-125 23-225 26-55 2-111-1-124-6zm199-532c73-8 164-44 183-73 4-7 12-13 17-13 11 0 90-76 90-86 0-4 14-22 30-41 17-18 30-39 30-46s10-33 22-58c12-24 21-47 20-51s7-25 18-46 21-51 23-67c2-17 6-37 10-45 3-8 8-33 11-55 4-22 8-56 11-75s8-55 10-80 6-54 7-65c3-20-3-20-555-23l-557-2-10 25c-6 16-6 34 1 52 5 14 7 39 4 54s-2 30 3 33c6 3 10 29 10 57 1 28 6 57 13 65 6 8 9 17 6 21-4 3-2 11 3 18s11 25 13 41 11 46 20 67 21 56 27 77 26 60 45 87c19 26 39 57 44 68 13 29 52 63 112 96 89 49 122 61 173 65 27 2 52 6 55 10 3 3 24 3 46-1s51-8 65-9zm485-1374c-4-15-9-43-11-62-6-62-13-104-24-150-6-25-13-61-16-80-2-19-13-54-24-77-11-24-19-46-18-50 9-28-88-179-162-252-23-23-63-51-88-62-26-12-61-28-78-36-21-9-68-15-130-16-108-1-188 18-256 60-21 13-39 23-41 23s-23 19-48 42c-48 46-63 69-115 178-49 102-51 107-65 170-6 30-14 59-17 65-3 5-7 16-8 25-5 32-14 97-18 130-2 19-7 54-11 77l-8 42h1145l-7-27zM970 3980c-23-45-39-84-36-87s23 32 46 77c22 46 38 85 36 88-3 2-23-33-46-78zM4050 3905c0-9 30-65 35-65 7 0-16 60-26 66-5 3-9 2-9-1zM4110 3753c0-5 7-18 15-29 13-18 14-18 8 4-5 22-23 41-23 25zM851 3699c-7-23-15-48-18-57-4-9-2-13 4-9 12 7 38 95 31 102-3 3-10-13-17-36zM810 3574c-13-32-13-51-1-38 10 11 24 64 16 64-3 0-10-12-15-26zM4206 3465c4-16 11-34 16-40 7-7 8-1 3 15-12 40-26 59-19 25zM4236 3345c8-37 14-45 14-19 0 10-5 26-10 34-8 11-9 7-4-15zM4262 3220c0-8 4-26 8-40 6-20 8-21 8-5 0 11-3 29-8 40-5 12-8 14-8 5zM711 3133c0-6-4-20-7-30-5-14-4-15 5-7 7 7 11 20 8 30-3 11-5 14-6 7zM697 3057c-11-29-9-43 4-30 6 6 9 19 7 29-3 18-4 18-11 1zM4290 3029c0-13 5-31 10-39 7-11 8-5 4 20-8 43-14 51-14 19zM4301 2943c-1-12 4-25 9-28 12-7 12 2 0 30-8 19-9 19-9-2zM677 2884c-4-4-7-17-7-28 1-19 1-20 11-3 11 19 8 43-4 31zM662 2720c0-19 2-27 5-17 2 9 2 25 0 35-3 9-5 1-5-18zM4323 2690c0-25 2-35 4-22 2 12 2 32 0 45-2 12-4 2-4-23zM4332 2570c0-19 2-27 5-17 2 9 2 25 0 35-3 9-5 1-5-18zM4327 2406c-4-27-6-67-6-90 1-31 4-25 11 29 10 81 6 135-5 61zM660 2296c0-25 5-48 10-51 6-4 10 11 10 39 0 25-4 48-10 51-6 4-10-11-10-39zM670 2148c0-15 5-30 10-33 13-8 13 25 0 45-8 12-10 9-10-12zM4307 2083c-11-10-8-43 3-43 6 0 10 11 10 25 0 26-2 29-13 18zM681 2040c0-33 1-34 10-11 6 16 6 28-1 35s-10-1-9-24zM4297 2003c-11-10-8-43 3-43 6 0 10 11 10 25 0 26-2 29-13 18zM690 1965c1-26 2-28 11-12 8 14 8 22 0 30s-11 3-11-18zM4287 1924c-4-4-7-14-7-23 0-11 3-12 11-4 6 6 10 16 7 23-2 6-7 8-11 4zM700 1901c0-11 5-23 10-26 6-3 10 3 10 14s-4 23-10 26c-5 3-10-3-10-14zM710 1843c0-13 5-23 10-23 13 0 13 11 0 30-8 12-10 11-10-7zM720 1781c0-12 5-21 10-21 6 0 10 6 10 14s-4 18-10 21c-5 3-10-3-10-14zM4241 1679c-13-39-13-39-2-39 8 0 22 61 16 68-1 2-8-11-14-29zM746 1670c7-38 11-46 20-38 3 3-2 21-10 39l-16 34 6-35zM4227 1624c-4-4-7-14-7-23 0-11 3-12 11-4 6 6 10 16 7 23-2 6-7 8-11 4zM4217 1573c-4-3-7-18-6-32 1-26 1-25 10 3 9 31 7 41-4 29zM774 1557c3-10 6-25 6-33s5-14 11-14c12 0 2 40-14 55-7 7-8 4-3-8zM801 1460c0-8 7-31 15-50l14-35-6 40c-5 38-25 75-23 45zM4180 1444c-15-38-24-84-17-84s37 103 32 109c-3 2-9-9-15-25zM4140 1326c-5-15-10-32-10-37s-4-17-9-27c-24-47-49-122-38-112 11 11 78 192 73 197-3 3-10-6-16-21zM865 1269c13-42 106-254 116-264 11-11-13 51-69 175-12 25-24 57-28 73-3 15-11 30-16 33-6 4-7-2-3-17zM4024 1045c-21-42-42-79-46-81-4-3-8-10-8-15 0-6 5-7 10-4 13 8 93 166 87 172-3 2-22-30-43-72zM1000 975c0-54 302-470 350-483 8-2-4 13-27 33-24 20-43 42-43 49s-12 25-27 39c-42 40-63 66-63 76 0 4-11 20-25 35s-25 29-25 31-21 37-47 77c-27 40-56 90-65 111-15 33-28 47-28 32zM3953 913c-3-10-8-22-10-28-3-5 3-1 11 9 16 20 21 36 11 36-3 0-8-8-12-17zM3876 789c-26-39-46-73-43-75 2-2 25 28 51 67s46 73 43 75c-2 2-25-28-51-67zM3765 640c-27-30-12-34 15-5 13 14 19 25 13 25-5 0-18-9-28-20zM3710 571c-19-16-32-32-29-35s21 10 39 29c41 43 36 45-10 6zM1375 461c28-33 178-151 185-145 3 3-4 12-15 20s-38 29-59 47c-21 17-46 36-55 41s-29 20-46 35c-27 24-28 24-10 2zM3568 433c-29-34-30-48-2-21 15 15 26 30 23 33s-13-3-21-12zM3500 375c-20-24-6-28 15-5 10 11 13 20 8 20-6 0-16-7-23-15zM3423 318c-24-17-41-33-39-36 5-4 96 56 96 63 0 11-17 2-57-27zM1574 301c10-16 76-51 76-40 0 5-11 14-24 19s-27 14-31 19c-3 6-11 11-16 11-6 0-8-4-5-9zM3307 244c-16-9-26-18-23-21s20 4 38 16c38 24 27 28-15 5zM1690 230c8-6 24-15 35-21 16-8 15-6-4 10-13 12-28 21-35 21-6 0-4-5 4-10zM1814 165c11-8 25-15 30-15 6 0 2 7-8 15-11 8-25 15-30 15-6 0-2-7 8-15zM3147 164c-16-9-27-18-24-21 6-5 67 24 67 32s-14 5-43-11zM1876 141c5-4 38-18 74-30 78-26 68-13-13 17-64 24-76 27-61 13zM3053 127c-39-15-58-32-23-22 44 14 70 24 70 30 0 7-10 5-47-8zM2907 83c-27-8-47-16-45-18 6-6 92 17 103 26 12 12 1 10-58-8zM2065 82c6-5 24-12 40-16 34-7 15 7-25 19-16 5-22 4-15-3zM2255 40c3-5 18-10 33-9 24 0 25 1 7 9-28 12-47 12-40 0zM2690 40c-13-9-13-10 0-9 8 0 24 4 35 9l20 9h-20c-11 0-27-4-35-9zM2360 30c0-5 16-10 36-10 21 0 33 4 29 10-3 6-19 10-36 10-16 0-29-4-29-10zM2540 30c0-13 70-13 90 0 11 7 0 10-37 10-29 0-53-4-53-10z"/></g><g fill="#fefefd"><path d="M2302 4992c-13-4 74-7 194-7 119 0 206 3 193 6-31 9-357 9-387 1zM3181 4846c10-9 89-46 89-41s-75 45-86 45c-4 0-5-2-3-4zM3402 4724c4-5 28-25 54-44 26-18 45-29 42-24-4 5-28 25-54 44-26 18-45 29-42 24zM1535 4684l-30-26 33 22c17 12 32 23 32 26 0 7-4 5-35-22zM3610 4549c52-52 97-93 99-91 7 4-87 98-144 144-27 23-7-1 45-53zM1324 4498l-29-33 33 29c30 28 37 36 29 36-2 0-16-15-33-32zM2350 4114c-333-61-558-207-743-484-146-217-242-492-282-809-24-187-17-563 14-733 100-560 367-956 751-1115 272-113 594-104 867 22 223 103 418 312 547 585 76 162 126 334 163 555 26 157 26 581-1 745-65 413-218 738-449 956-138 129-275 206-456 255-57 15-115 21-231 24-85 2-166 2-180-1zm291-539c213-61 346-264 403-615 8-52 16-117 18-145l3-50-568-3-568-2 6 72c22 243 88 454 184 585 108 148 326 214 522 158zm423-1382c-31-257-79-424-161-551-114-180-316-258-532-207-246 58-389 302-436 743l-7 62h1142l-6-47zM662 2720c0-19 2-27 5-17 2 9 2 25 0 35-3 9-5 1-5-18zM4332 2570c0-19 2-27 5-17 2 9 2 25 0 35-3 9-5 1-5-18zM4333 2410c0-25 2-35 4-22 2 12 2 32 0 45-2 12-4 2-4-23zM662 2280c0-19 2-27 5-17 2 9 2 25 0 35-3 9-5 1-5-18zM950 1066c0-11 30-66 36-66 2 0-3 15-12 33-19 36-24 44-24 33zM3995 980c-9-16-13-30-11-30 3 0 12 14 21 30 9 17 13 30 11 30-3 0-12-13-21-30zM1180 680c12-16 24-30 26-30 3 0-4 14-16 30-12 17-24 30-26 30-3 0 4-13 16-30zM1300 535c19-19 36-35 39-35s-10 16-29 35-36 35-39 35 10-16 29-35zM1380 457c14-16 43-43 65-59l40-31-35 33c-19 18-48 45-65 59l-30 26 25-28zM2378 23c12-2 30-2 40 0 9 3-1 5-23 4-22 0-30-2-17-4zM2573 23c9-2 25-2 35 0 9 3 1 5-18 5s-27-2-17-5z"/></g></svg>
